0
SECTION
2
HEADER
9
$INSUNITS
70
4
9
$ACADVER
1
AC1014
9
$HANDSEED
5
FFFF
0
ENDSEC
0
SECTION
2
TABLES
0
TABLE
2
VPORT
5
8
100
AcDbSymbolTable
0
ENDTAB
0
TABLE
2
LTYPE
5
5
100
AcDbSymbolTable
0
LTYPE
5
14
100
AcDbSymbolTableRecord
100
AcDbLinetypeTableRecord
2
BYBLOCK
70
0
0
LTYPE
5
15
100
AcDbSymbolTableRecord
100
AcDbLinetypeTableRecord
2
BYLAYER
70
0
0
ENDTAB
0
TABLE
2
LAYER
5
2
100
AcDbSymbolTable
70
2
0
LAYER
5
50
100
AcDbSymbolTableRecord
100
AcDbLayerTableRecord
2
0
70
0
6
CONTINUOUS
0
ENDTAB
0
TABLE
2
STYLE
5
3
100
AcDbSymbolTable
70
1
0
STYLE
5
11
100
AcDbSymbolTableRecord
100
AcDbTextStyleTableRecord
2
STANDARD
70
0
0
ENDTAB
0
TABLE
2
VIEW
5
6
100
AcDbSymbolTable
70
0
0
ENDTAB
0
TABLE
2
UCS
5
7
100
AcDbSymbolTable
70
0
0
ENDTAB
0
TABLE
2
APPID
5
9
100
AcDbSymbolTable
70
2
0
APPID
5
12
100
AcDbSymbolTableRecord
100
AcDbRegAppTableRecord
2
ACAD
70
0
0
ENDTAB
0
TABLE
2
DIMSTYLE
5
A
100
AcDbSymbolTable
70
1
0
ENDTAB
0
TABLE
2
BLOCK_RECORD
5
1
100
AcDbSymbolTable
70
1
0
BLOCK_RECORD
5
1F
100
AcDbSymbolTableRecord
100
AcDbBlockTableRecord
2
*MODEL_SPACE
0
BLOCK_RECORD
5
1B
100
AcDbSymbolTableRecord
100
AcDbBlockTableRecord
2
*PAPER_SPACE
0
ENDTAB
0
ENDSEC
0
SECTION
2
BLOCKS
0
BLOCK
5
20
100
AcDbEntity
100
AcDbBlockBegin
2
*MODEL_SPACE
0
ENDBLK
5
21
100
AcDbEntity
100
AcDbBlockEnd
0
BLOCK
5
1C
100
AcDbEntity
100
AcDbBlockBegin
2
*PAPER_SPACE
0
ENDBLK
5
1D
100
AcDbEntity
100
AcDbBlockEnd
0
ENDSEC
0
SECTION
2
ENTITIES
0
SPLINE
5
100
100
AcDbEntity
8
0
100
AcDbSpline
70
4
71
3
72
8
73
4
74
0
42
0.000000001
43
0.0000000001
44
0.0000000001
40
0
40
0
40
0
40
0
40
1
40
1
40
1
40
1
41
1
41
1
41
1
41
1
10
81.714072684653644
20
47.950902381626904
30
0
10
79.44226489008274
20
50.222905173985275
30
0
10
76.304471921332734
20
51.628616367070066
30
0
10
72.840531224616441
20
51.628616367070059
30
0
0
LINE
5
101
100
AcDbEntity
8
0
100
AcDbLine
10
72.840531224616441
20
51.628616367070059
30
0
11
70.33029684961646
21
51.628616367070059
31
0
0
SPLINE
5
102
100
AcDbEntity
8
0
100
AcDbSpline
70
4
71
3
72
8
73
4
74
0
42
0.000000001
43
0.0000000001
44
0.0000000001
40
0
40
0
40
0
40
0
40
1
40
1
40
1
40
1
41
1
41
1
41
1
41
1
10
70.330296849616474
20
51.628616367070059
30
0
10
66.866356152900167
20
51.628616367070059
30
0
10
63.72856318415019
20
50.222905173985254
30
0
10
61.456758871682652
20
47.950902381626889
30
0
0
LINE
5
103
100
AcDbEntity
8
0
100
AcDbLine
10
61.455296388276572
20
47.952740932194473
30
0
11
60.458596536525221
21
48.679358401982071
31
0
0
SPLINE
5
104
100
AcDbEntity
8
0
100
AcDbSpline
70
4
71
3
72
8
73
4
74
0
42
0.000000001
43
0.0000000001
44
0.0000000001
40
0
40
0
40
0
40
0
40
1
40
1
40
1
40
1
41
1
41
1
41
1
41
1
10
60.458596536525221
20
48.679358401982071
30
0
10
59.794162468322284
20
49.164011474339297
30
0
10
58.809235607989777
20
49.860487857548506
30
0
10
57.503732385047464
20
50.770570388523886
30
0
0
SPLINE
5
105
100
AcDbEntity
8
0
100
AcDbSpline
70
4
71
3
72
8
73
4
74
0
42
0.000000001
43
0.0000000001
44
0.0000000001
40
0
40
0
40
0
40
0
40
1
40
1
40
1
40
1
41
1
41
1
41
1
41
1
10
57.503732385047464
20
50.770570388523886
30
0
10
56.198135145314708
20
51.680652919499146
30
0
10
54.601169425853286
20
52.730409579960636
30
0
10
52.712744691976106
20
53.919784656254492
30
0
0
SPLINE
5
106
100
AcDbEntity
8
0
100
AcDbSpline
70
4
71
3
72
8
73
4
74
0
42
0.000000001
43
0.0000000001
44
0.0000000001
40
0
40
0
40
0
40
0
40
1
40
1
40
1
40
1
41
1
41
1
41
1
41
1
10
52.712744691976106
20
53.919784656254492
30
0
10
50.824410492785965
20
55.109159732548477
30
0
10
48.681489271529728
20
56.345111423222285
30
0
10
46.284078527101116
20
57.626748309819
30
0
0
SPLINE
5
107
100
AcDbEntity
8
0
100
AcDbSpline
70
4
71
3
72
8
73
4
74
0
42
0.000000001
43
0.0000000001
44
0.0000000001
40
0
40
0
40
0
40
0
40
1
40
1
40
1
40
1
41
1
41
1
41
1
41
1
10
46.284078527101116
20
57.626748309819
30
0
10
43.88666778267249
20
58.909220901219122
30
0
10
41.256492357858278
20
60.183503585545225
30
0
10
38.393454753764757
20
61.450487781254459
30
0
0
SPLINE
5
108
100
AcDbEntity
8
0
100
AcDbSpline
70
4
71
3
72
8
73
4
74
0
42
0.000000001
43
0.0000000001
44
0.0000000001
40
0
40
0
40
0
40
0
40
1
40
1
40
1
40
1
41
1
41
1
41
1
41
1
10
38.393454753764757
20
61.450487781254459
30
0
10
35.530417149671187
20
62.716580558506649
30
0
10
32.986409854301115
20
63.774527126042045
30
0
10
30.761612195976866
20
64.622544646946579
30
0
0
SPLINE
5
109
100
AcDbEntity
8
0
100
AcDbSpline
70
4
71
3
72
8
73
4
74
0
42
0.000000001
43
0.0000000001
44
0.0000000001
40
0
40
0
40
0
40
0
40
1
40
1
40
1
40
1
41
1
41
1
41
1
41
1
10
30.761612195976866
20
64.622544646946579
30
0
10
28.536814537652653
20
65.470506454197604
30
0
10
26.602473047980002
20
66.181579814640656
30
0
10
24.95858946801059
20
66.754873309818947
30
0
0
SPLINE
5
110
100
AcDbEntity
8
0
100
AcDbSpline
70
4
71
3
72
8
73
4
74
0
42
0.000000001
43
0.0000000001
44
0.0000000001
40
0
40
0
40
0
40
0
40
1
40
1
40
1
40
1
41
1
41
1
41
1
41
1
10
24.95858946801059
20
66.754873309818947
30
0
10
23.31479642272825
20
67.329002509800532
30
0
10
21.950050434478481
20
67.793654380528153
30
0
10
20.864442037948301
20
68.150556045261993
30
0
0
SPLINE
5
111
100
AcDbEntity
8
0
100
AcDbSpline
70
4
71
3
72
8
73
4
74
0
42
0.000000001
43
0.0000000001
44
0.0000000001
40
0
40
0
40
0
40
0
40
1
40
1
40
1
40
1
41
1
41
1
41
1
41
1
10
20.864442037948301
20
68.150556045261993
30
0
10
19.778834511943995
20
68.506510577885294
30
0
10
18.965883512803252
20
68.771261859623536
30
0
10
18.425681316264839
20
68.942859912602117
30
0
0
LINE
5
112
100
AcDbEntity
8
0
100
AcDbLine
10
18.425681316264875
20
68.942859912602117
30
0
11
17.615377586194239
21
69.200256992069882
31
0
0
LINE
5
113
100
AcDbEntity
8
0
100
AcDbLine
10
17.615377586194239
20
69.200256992069882
30
0
11
17.10146439940571
21
68.042805839268354
31
0
0
SPLINE
5
114
100
AcDbEntity
8
0
100
AcDbSpline
70
4
71
3
72
8
73
4
74
0
42
0.000000001
43
0.0000000001
44
0.0000000001
40
0
40
0
40
0
40
0
40
1
40
1
40
1
40
1
41
1
41
1
41
1
41
1
10
17.10146439940571
20
68.042805839268354
30
0
10
16.758885496267037
20
67.270614600864988
30
0
10
16.2844967940533
20
66.11589341708823
30
0
10
15.678481103190176
20
64.578698001591363
30
0
0
SPLINE
5
115
100
AcDbEntity
8
0
100
AcDbSpline
70
4
71
3
72
8
73
4
74
0
42
0.000000001
43
0.0000000001
44
0.0000000001
40
0
40
0
40
0
40
0
40
1
40
1
40
1
40
1
41
1
41
1
41
1
41
1
10
15.678481103190176
20
64.578698001591363
30
0
10
15.072373136588357
20
63.040611167637579
30
0
10
14.433404560693521
20
61.127348590580645
30
0
10
13.761419551380882
20
58.838910270420698
30
0
0
SPLINE
5
116
100
AcDbEntity
8
0
100
AcDbSpline
70
4
71
3
72
8
73
4
74
0
42
0.000000001
43
0.0000000001
44
0.0000000001
40
0
40
0
40
0
40
0
40
1
40
1
40
1
40
1
41
1
41
1
41
1
41
1
10
13.761419551380882
20
58.838910270420698
30
0
10
13.089461528369188
20
56.549580531803841
30
0
10
12.518552403458365
20
53.887860732762107
30
0
10
12.048673025079975
20
50.854586578099045
30
0
0
SPLINE
5
117
100
AcDbEntity
8
0
100
AcDbSpline
70
4
71
3
72
8
73
4
74
0
42
0.000000001
43
0.0000000001
44
0.0000000001
40
0
40
0
40
0
40
0
40
1
40
1
40
1
40
1
41
1
41
1
41
1
41
1
10
12.048673025079975
20
50.854586578099045
30
0
10
11.578802787222902
20
47.820365291325302
30
0
10
11.347368270316149
20
44.373584399906946
30
0
10
11.354378614881071
20
40.513296771733131
30
0
0
SPLINE
5
118
100
AcDbEntity
8
0
100
AcDbSpline
70
4
71
3
72
8
73
4
74
0
42
0.000000001
43
0.0000000001
44
0.0000000001
40
0
40
0
40
0
40
0
40
1
40
1
40
1
40
1
41
1
41
1
41
1
41
1
10
11.354378614881071
20
40.513296771733131
30
0
10
11.361379818924693
20
36.653009143559352
30
0
10
11.603001229175369
20
33.097642341343686
30
0
10
12.07922499985342
20
29.846193519322327
30
0
0
SPLINE
5
119
100
AcDbEntity
8
0
100
AcDbSpline
70
4
71
3
72
8
73
4
74
0
42
0.000000001
43
0.0000000001
44
0.0000000001
40
0
40
0
40
0
40
0
40
1
40
1
40
1
40
1
41
1
41
1
41
1
41
1
10
12.07922499985342
20
29.846193519322327
30
0
10
12.555457475789815
20
26.595636115757763
30
0
10
13.128073701866896
20
23.671950717656053
30
0
10
13.797083253868863
20
21.075861602513228
30
0
0
SPLINE
5
120
100
AcDbEntity
8
0
100
AcDbSpline
70
4
71
3
72
8
73
4
74
0
42
0.000000001
43
0.0000000001
44
0.0000000001
40
0
40
0
40
0
40
0
40
1
40
1
40
1
40
1
41
1
41
1
41
1
41
1
10
13.797083253868863
20
21.075861602513228
30
0
10
14.466083230086628
20
18.479828201024024
30
0
10
15.100488509544174
20
16.274514651982244
30
0
10
15.700388756402788
20
14.459809528080889
30
0
0
SPLINE
5
121
100
AcDbEntity
8
0
100
AcDbSpline
70
4
71
3
72
8
73
4
74
0
42
0.000000001
43
0.0000000001
44
0.0000000001
40
0
40
0
40
0
40
0
40
1
40
1
40
1
40
1
41
1
41
1
41
1
41
1
10
15.700388756402788
20
14.459809528080889
30
0
10
16.300197598048474
20
12.646051536290175
30
0
10
16.769291762121963
20
11.274994235722486
30
0
10
17.107762653836041
20
10.346693340031576
30
0
0
LINE
5
122
100
AcDbEntity
8
0
100
AcDbLine
10
17.107762653836058
20
10.346693340031576
30
0
11
17.615377586194292
21
8.9546319920701656
31
0
0
LINE
5
123
100
AcDbEntity
8
0
100
AcDbLine
10
17.615377586194292
20
8.9546319920701656
30
0
11
18.567624036082044
21
9.204730582921048
31
0
0
SPLINE
5
124
100
AcDbEntity
8
0
100
AcDbSpline
70
4
71
3
72
8
73
4
74
0
42
0.000000001
43
0.0000000001
44
0.0000000001
40
0
40
0
40
0
40
0
40
1
40
1
40
1
40
1
41
1
41
1
41
1
41
1
10
18.567624036082044
20
9.2047305829209769
30
0
10
19.202484600552321
20
9.3708686978502787
30
0
10
20.151810436257112
20
9.6283214909715209
30
0
10
21.415598061093082
20
9.9742475659531937
30
0
0
SPLINE
5
125
100
AcDbEntity
8
0
100
AcDbSpline
70
4
71
3
72
8
73
4
74
0
42
0.000000001
43
0.0000000001
44
0.0000000001
40
0
40
0
40
0
40
0
40
1
40
1
40
1
40
1
41
1
41
1
41
1
41
1
10
21.415598061093082
20
9.9742475659531937
30
0
10
22.679387426980728
20
10.321120773045545
30
0
10
24.250428887017925
20
10.774797054020864
30
0
10
26.128631906517725
20
11.335276408879258
30
0
0
SPLINE
5
126
100
AcDbEntity
8
0
100
AcDbSpline
70
4
71
3
72
8
73
4
74
0
42
0.000000001
43
0.0000000001
44
0.0000000001
40
0
40
0
40
0
40
0
40
1
40
1
40
1
40
1
41
1
41
1
41
1
41
1
10
26.128631906517725
20
11.335276408879258
30
0
10
28.006834926017472
20
11.896647182194711
30
0
10
30.179329651006412
20
12.594014983860964
30
0
10
32.646022064694108
20
13.42832694598869
30
0
0
SPLINE
5
127
100
AcDbEntity
8
0
100
AcDbSpline
70
4
71
3
72
8
73
4
74
0
42
0.000000001
43
0.0000000001
44
0.0000000001
40
0
40
0
40
0
40
0
40
1
40
1
40
1
40
1
41
1
41
1
41
1
41
1
10
32.646022064694108
20
13.42832694598869
30
0
10
35.112808495172189
20
14.263586040226954
30
0
10
37.841384678491288
20
15.310557018010051
30
0
10
40.831668785222647
20
16.570242725102425
30
0
0
SPLINE
5
128
100
AcDbEntity
8
0
100
AcDbSpline
70
4
71
3
72
8
73
4
74
0
42
0.000000001
43
0.0000000001
44
0.0000000001
40
0
40
0
40
0
40
0
40
1
40
1
40
1
40
1
41
1
41
1
41
1
41
1
10
40.831668785222647
20
16.570242725102425
30
0
10
43.822043426641102
20
17.829037013737626
30
0
10
46.452675006993864
20
19.103319698063732
30
0
10
48.723479955800627
20
20.393090778080865
30
0
0
SPLINE
5
129
100
AcDbEntity
8
0
100
AcDbSpline
70
4
71
3
72
8
73
4
74
0
42
0.000000001
43
0.0000000001
44
0.0000000001
40
0
40
0
40
0
40
0
40
1
40
1
40
1
40
1
41
1
41
1
41
1
41
1
10
48.723479955800627
20
20.393090778080865
30
0
10
50.994375439294402
20
21.681970439640939
30
0
10
52.929993119844028
20
22.929789138523972
30
0
10
54.530611565717244
20
24.134708324162361
30
0
0
SPLINE
5
130
100
AcDbEntity
8
0
100
AcDbSpline
70
4
71
3
72
8
73
4
74
0
42
0.000000001
43
0.0000000001
44
0.0000000001
40
0
40
0
40
0
40
0
40
1
40
1
40
1
40
1
41
1
41
1
41
1
41
1
10
54.530611565717244
20
24.134708324162361
30
0
10
56.131135994800104
20
25.33962750980087
30
0
10
57.438467322000065
20
26.405819698063805
30
0
10
58.452602065213703
20
27.332282043187025
30
0
0
SPLINE
5
131
100
AcDbEntity
8
0
100
AcDbSpline
70
4
71
3
72
8
73
4
74
0
42
0.000000001
43
0.0000000001
44
0.0000000001
40
0
40
0
40
0
40
0
40
1
40
1
40
1
40
1
41
1
41
1
41
1
41
1
10
58.452602065213703
20
27.332282043187025
30
0
10
59.466736808427356
20
28.257908683506933
30
0
10
60.220720128425143
20
28.96803491183945
30
0
10
60.714548543103732
20
29.46188073703464
30
0
0
LINE
5
132
100
AcDbEntity
8
0
100
AcDbLine
10
60.714548543103732
20
29.461880737034669
30
0
11
61.455290995279341
21
30.203091852463739
31
0
0
SPLINE
5
133
100
AcDbEntity
8
0
100
AcDbSpline
70
4
71
3
72
8
73
4
74
0
42
0.000000001
43
0.0000000001
44
0.0000000001
40
0
40
0
40
0
40
0
40
1
40
1
40
1
40
1
41
1
41
1
41
1
41
1
10
61.456758871682666
20
30.203986602513261
30
0
10
63.72856318415019
20
27.932039523808395
30
0
10
66.866356152900181
20
26.526272617070092
30
0
10
70.330296849616488
20
26.526272617070099
30
0
0
LINE
5
134
100
AcDbEntity
8
0
100
AcDbLine
10
70.330296849616488
20
26.526272617070099
30
0
11
72.840531224616484
21
26.526272617070099
31
0
0
SPLINE
5
135
100
AcDbEntity
8
0
100
AcDbSpline
70
4
71
3
72
8
73
4
74
0
42
0.000000001
43
0.0000000001
44
0.0000000001
40
0
40
0
40
0
40
0
40
1
40
1
40
1
40
1
41
1
41
1
41
1
41
1
10
72.840531224616441
20
26.526272617070099
30
0
10
76.304471921332762
20
26.526272617070102
30
0
10
79.442264890082782
20
27.932039523808413
30
0
10
81.714072684653644
20
30.203986602513279
30
0
0
LINE
5
136
100
AcDbEntity
8
0
100
AcDbLine
10
81.715535168059731
20
30.203095184056238
30
0
11
82.593477885135073
21
29.47374774524399
31
0
0
SPLINE
5
137
100
AcDbEntity
8
0
100
AcDbSpline
70
4
71
3
72
8
73
4
74
0
42
0.000000001
43
0.0000000001
44
0.0000000001
40
0
40
0
40
0
40
0
40
1
40
1
40
1
40
1
41
1
41
1
41
1
41
1
10
82.593477885135073
20
29.473747745244012
30
0
10
83.178680173762686
20
28.987256122319188
30
0
10
84.056532356150996
20
28.287994056431714
30
0
10
85.226853362925908
20
27.37429013797464
30
0
0
SPLINE
5
138
100
AcDbEntity
8
0
100
AcDbSpline
70
4
71
3
72
8
73
4
74
0
42
0.000000001
43
0.0000000001
44
0.0000000001
40
0
40
0
40
0
40
0
40
1
40
1
40
1
40
1
41
1
41
1
41
1
41
1
10
85.226853362925908
20
27.37429013797464
30
0
10
86.397167405494116
20
26.461477637974745
30
0
10
87.859769203074777
20
25.408991008488641
30
0
10
89.614651791461327
20
24.216885963170022
30
0
0
SPLINE
5
139
100
AcDbEntity
8
0
100
AcDbSpline
70
4
71
3
72
8
73
4
74
0
42
0.000000001
43
0.0000000001
44
0.0000000001
40
0
40
0
40
0
40
0
40
1
40
1
40
1
40
1
41
1
41
1
41
1
41
1
10
89.614651791461327
20
24.216885963170022
30
0
10
91.369443845160831
20
23.02472520419791
30
0
10
93.41623812139828
20
21.78699067661001
30
0
10
95.754867479213047
20
20.50262382098866
30
0
0
SPLINE
5
140
100
AcDbEntity
8
0
100
AcDbSpline
70
4
71
3
72
8
73
4
74
0
42
0.000000001
43
0.0000000001
44
0.0000000001
40
0
40
0
40
0
40
0
40
1
40
1
40
1
40
1
41
1
41
1
41
1
41
1
10
95.754867479213047
20
20.50262382098866
30
0
10
98.093858975776001
20
19.219204097477977
30
0
10
100.72366877973872
20
17.944921413151754
30
0
10
103.64649758041692
20
16.67977576801011
30
0
0
SPLINE
5
141
100
AcDbEntity
8
0
100
AcDbSpline
70
4
71
3
72
8
73
4
74
0
42
0.000000001
43
0.0000000001
44
0.0000000001
40
0
40
0
40
0
40
0
40
1
40
1
40
1
40
1
41
1
41
1
41
1
41
1
10
103.64649758041692
20
16.67977576801011
30
0
10
106.56840710581137
20
15.414630122868598
30
0
10
109.19822387398077
20
14.359413524357825
30
0
10
111.5350216454346
20
13.51323455402088
30
0
0
SPLINE
5
142
100
AcDbEntity
8
0
100
AcDbSpline
70
4
71
3
72
8
73
4
74
0
42
0.000000001
43
0.0000000001
44
0.0000000001
40
0
40
0
40
0
40
0
40
1
40
1
40
1
40
1
41
1
41
1
41
1
41
1
10
111.5350216454346
20
13.51323455402088
30
0
10
113.87181941688846
20
12.667947002141107
30
0
10
115.91652443111725
20
11.959603610722569
30
0
10
117.66912275970766
20
11.388204379765599
30
0
0
SPLINE
5
143
100
AcDbEntity
8
0
100
AcDbSpline
70
4
71
3
72
8
73
4
74
0
42
0.000000001
43
0.0000000001
44
0.0000000001
40
0
40
0
40
0
40
0
40
1
40
1
40
1
40
1
41
1
41
1
41
1
41
1
10
117.66912275970766
20
11.388204379765599
30
0
10
119.421721088298
20
10.816805148808539
30
0
10
120.8822196954567
20
10.353991828648654
30
0
10
122.05062554539032
20
9.9998201329394387
30
0
0
SPLINE
5
144
100
AcDbEntity
8
0
100
AcDbSpline
70
4
71
3
72
8
73
4
74
0
42
0.000000001
43
0.0000000001
44
0.0000000001
40
0
40
0
40
0
40
0
40
1
40
1
40
1
40
1
41
1
41
1
41
1
41
1
10
122.05062554539032
20
9.9998201329394387
30
0
10
123.21902443111723
20
9.6447570187731824
30
0
10
124.09531663120573
20
9.3818442876025276
30
0
10
124.67951607406918
20
9.2111376530810141
30
0
0
LINE
5
145
100
AcDbEntity
8
0
100
AcDbLine
10
124.67951607406918
20
9.2111376530810141
30
0
11
125.55582220257106
21
8.9546319920702722
31
0
0
LINE
5
146
100
AcDbEntity
8
0
100
AcDbLine
10
125.55582220257106
20
8.9546319920702722
30
0
11
125.91546776474301
21
9.597288985936272
31
0
0
SPLINE
5
147
100
AcDbEntity
8
0
100
AcDbSpline
70
4
71
3
72
8
73
4
74
0
42
0.000000001
43
0.0000000001
44
0.0000000001
40
0
40
0
40
0
40
0
40
1
40
1
40
1
40
1
41
1
41
1
41
1
41
1
10
125.91546776474301
20
9.5972889859361832
30
0
10
126.15553789795223
20
10.026284118382511
30
0
10
126.50696569622339
20
10.730058990208713
30
0
10
126.96976508796992
20
11.710452151982365
30
0
0
SPLINE
5
148
100
AcDbEntity
8
0
100
AcDbSpline
70
4
71
3
72
8
73
4
74
0
42
0.000000001
43
0.0000000001
44
0.0000000001
40
0
40
0
40
0
40
0
40
1
40
1
40
1
40
1
41
1
41
1
41
1
41
1
10
126.96976508796992
20
11.710452151982365
30
0
10
127.43256447971645
20
12.690789600102521
30
0
10
127.98573141754447
20
14.102016444890086
30
0
10
128.62926590145412
20
15.942238422123992
30
0
0
SPLINE
5
149
100
AcDbEntity
8
0
100
AcDbSpline
70
4
71
3
72
8
73
4
74
0
42
0.000000001
43
0.0000000001
44
0.0000000001
40
0
40
0
40
0
40
0
40
1
40
1
40
1
40
1
41
1
41
1
41
1
41
1
10
128.62926590145412
20
15.942238422123992
30
0
10
129.27280038536372
20
17.783351817814822
30
0
10
129.95831510723414
20
20.244335323063897
30
0
10
130.68491864860835
20
23.325968929020881
30
0
0
SPLINE
5
150
100
AcDbEntity
8
0
100
AcDbSpline
70
4
71
3
72
8
73
4
74
0
42
0.000000001
43
0.0000000001
44
0.0000000001
40
0
40
0
40
0
40
0
40
1
40
1
40
1
40
1
41
1
41
1
41
1
41
1
10
130.68491864860835
20
23.325968929020881
30
0
10
131.41242753685296
20
26.406711116520924
30
0
10
132.00210084617913
20
30.179361167637847
30
0
10
132.45577712715442
20
34.64391908237161
30
0
0
SPLINE
5
151
100
AcDbEntity
8
0
100
AcDbSpline
70
4
71
3
72
8
73
4
74
0
42
0.000000001
43
0.0000000001
44
0.0000000001
40
0
40
0
40
0
40
0
40
1
40
1
40
1
40
1
41
1
41
1
41
1
41
1
10
132.45577712715442
20
34.64391908237161
30
0
10
132.90943947971638
20
39.108476997105505
30
0
10
132.97881690681754
20
43.216133247105553
30
0
10
132.66297620476064
20
46.966887832371626
30
0
0
SPLINE
5
152
100
AcDbEntity
8
0
100
AcDbSpline
70
4
71
3
72
8
73
4
74
0
42
0.000000001
43
0.0000000001
44
0.0000000001
40
0
40
0
40
0
40
0
40
1
40
1
40
1
40
1
41
1
41
1
41
1
41
1
10
132.66297620476064
20
46.966887832371626
30
0
10
132.34714943111715
20
50.718533836094736
30
0
10
131.77207309902488
20
53.989148154942413
30
0
10
130.93776113689719
20
56.779622207371588
30
0
0
SPLINE
5
153
100
AcDbEntity
8
0
100
AcDbSpline
70
4
71
3
72
8
73
4
74
0
42
0.000000001
43
0.0000000001
44
0.0000000001
40
0
40
0
40
0
40
0
40
1
40
1
40
1
40
1
41
1
41
1
41
1
41
1
10
130.93776113689719
20
56.779622207371588
30
0
10
130.10344917476948
20
59.570096259800764
30
0
10
129.25271561325368
20
61.882268596379141
30
0
10
128.38645187080681
20
63.717030635563638
30
0
0
SPLINE
5
154
100
AcDbEntity
8
0
100
AcDbSpline
70
4
71
3
72
8
73
4
74
0
42
0.000000001
43
0.0000000001
44
0.0000000001
40
0
40
0
40
0
40
0
40
1
40
1
40
1
40
1
41
1
41
1
41
1
41
1
10
128.38645187080681
20
63.717030635563638
30
0
10
127.52018812835991
20
65.550845542637589
30
0
10
126.83192950905143
20
66.923741393772872
30
0
10
126.3216760128814
20
67.834715343205175
30
0
0
LINE
5
155
100
AcDbEntity
8
0
100
AcDbLine
10
126.3216760128814
20
67.834715343205175
30
0
11
125.55582220257102
21
69.20025699206991
31
0
0
LINE
5
156
100
AcDbEntity
8
0
100
AcDbLine
10
125.55582220257102
20
69.20025699206991
30
0
11
124.75528664291681
21
68.942859912602202
31
0
0
SPLINE
5
157
100
AcDbEntity
8
0
100
AcDbSpline
70
4
71
3
72
8
73
4
74
0
42
0.000000001
43
0.0000000001
44
0.0000000001
40
0
40
0
40
0
40
0
40
1
40
1
40
1
40
1
41
1
41
1
41
1
41
1
10
124.75528664291681
20
68.942859912602216
30
0
10
124.22128520191491
20
68.770314727513096
30
0
10
123.41801967323603
20
68.505619159428349
30
0
10
122.34546220005336
20
68.148717494694495
30
0
0
SPLINE
5
158
100
AcDbEntity
8
0
100
AcDbSpline
70
4
71
3
72
8
73
4
74
0
42
0.000000001
43
0.0000000001
44
0.0000000001
40
0
40
0
40
0
40
0
40
1
40
1
40
1
40
1
41
1
41
1
41
1
41
1
10
122.34546220005336
20
68.148717494694495
30
0
10
121.27199241579356
20
67.791815829960655
30
0
10
119.92193916261974
20
67.326272540776003
30
0
10
118.29439709366147
20
66.752087627140781
30
0
0
SPLINE
5
159
100
AcDbEntity
8
0
100
AcDbSpline
70
4
71
3
72
8
73
4
74
0
42
0.000000001
43
0.0000000001
44
0.0000000001
40
0
40
0
40
0
40
0
40
1
40
1
40
1
40
1
41
1
41
1
41
1
41
1
10
118.29439709366147
20
66.752087627140781
30
0
10
116.66776733578031
20
66.177958427159069
30
0
10
114.74995016754454
20
65.466885066716003
30
0
10
112.54185093582458
20
64.617976127354424
30
0
0
SPLINE
5
160
100
AcDbEntity
8
0
100
AcDbSpline
70
4
71
3
72
8
73
4
74
0
42
0.000000001
43
0.0000000001
44
0.0000000001
40
0
40
0
40
0
40
0
40
1
40
1
40
1
40
1
41
1
41
1
41
1
41
1
10
112.54185093582458
20
64.617976127354424
30
0
10
110.3337586683113
20
63.76995860644989
30
0
10
107.80344648540806
20
62.71201203891448
30
0
10
104.9490758365471
20
61.445027843205239
30
0
0
SPLINE
5
161
100
AcDbEntity
8
0
100
AcDbSpline
70
4
71
3
72
8
73
4
74
0
42
0.000000001
43
0.0000000001
44
0.0000000001
40
0
40
0
40
0
40
0
40
1
40
1
40
1
40
1
41
1
41
1
41
1
41
1
10
104.9490758365471
20
61.445027843205239
30
0
10
102.09471215189291
20
60.178043647496004
30
0
10
99.464902347930234
20
58.903760963169901
30
0
10
97.058727149375216
20
57.622179790226689
30
0
0
SPLINE
5
162
100
AcDbEntity
8
0
100
AcDbSpline
70
4
71
3
72
8
73
4
74
0
42
0.000000001
43
0.0000000001
44
0.0000000001
40
0
40
0
40
0
40
0
40
1
40
1
40
1
40
1
41
1
41
1
41
1
41
1
10
97.058727149375216
20
57.622179790226689
30
0
10
94.652370881446203
20
56.33965148517305
30
0
10
92.49484571874936
20
55.104646926609782
30
0
10
90.58615862549145
20
53.916163268772848
30
0
0
SPLINE
5
163
100
AcDbEntity
8
0
100
AcDbSpline
70
4
71
3
72
8
73
4
74
0
42
0.000000001
43
0.0000000001
44
0.0000000001
40
0
40
0
40
0
40
0
40
1
40
1
40
1
40
1
41
1
41
1
41
1
41
1
10
90.58615862549145
20
53.916163268772848
30
0
10
88.677464568026863
20
52.727679610936036
30
0
10
87.060055419810624
20
51.677922950474546
30
0
10
85.734007787116425
20
50.768787551609826
30
0
0
SPLINE
5
164
100
AcDbEntity
8
0
100
AcDbSpline
70
4
71
3
72
8
73
4
74
0
42
0.000000001
43
0.0000000001
44
0.0000000001
40
0
40
0
40
0
40
0
40
1
40
1
40
1
40
1
41
1
41
1
41
1
41
1
10
85.734007787116425
20
50.768787551609826
30
0
10
84.4078765839418
20
49.859596439091483
30
0
10
83.406611694701539
20
49.163120055882281
30
0
10
82.730220083602276
20
48.678411269871532
30
0
0
LINE
5
165
100
AcDbEntity
8
0
100
AcDbLine
10
82.730220083602276
20
48.678411269871525
30
0
11
81.715535168059702
21
47.952740932194537
31
0
0
LINE
5
166
100
AcDbEntity
8
0
100
AcDbLine
10
61.455290995279341
20
30.203091852463739
30
0
11
61.456758871682666
21
30.203986602513261
31
0
0
LINE
5
167
100
AcDbEntity
8
0
100
AcDbLine
10
81.714072684653644
20
30.203986602513279
30
0
11
81.715535168059731
21
30.203095184056238
31
0
0
LINE
5
168
100
AcDbEntity
8
0
100
AcDbLine
10
81.715535168059702
20
47.952740932194537
30
0
11
81.714072684653644
21
47.950902381626904
31
0
0
LINE
5
169
100
AcDbEntity
8
0
100
AcDbLine
10
61.455296388276572
20
47.952740932194473
30
0
11
61.456758871682652
21
47.950902381626889
31
0
0
ENDSEC
0
SECTION
2
OBJECTS
0
DICTIONARY
5
C
100
AcDbDictionary
3
ACAD_GROUP
350
D
3
ACAD_MLINESTYLE
350
17
0
DICTIONARY
5
D
100
AcDbDictionary
0
DICTIONARY
5
1A
330
C
100
AcDbDictionary
0
DICTIONARY
5
17
100
AcDbDictionary
0
ENDSEC
0
EOF
